<svg width="24" height="25" viewBox="0 0 24 25" fill="none" xmlns="http://www.w3.org/2000/svg">
<path d="M10.125 0.779297H13.875C14.4984 0.779297 15 1.28086 15 1.9043V9.7793H19.1109C19.9453 9.7793 20.3625 10.7871 19.7719 11.3777L12.6422 18.5121C12.2906 18.8637 11.7141 18.8637 11.3625 18.5121L4.22344 11.3777C3.63281 10.7871 4.05 9.7793 4.88437 9.7793H9V1.9043C9 1.28086 9.50156 0.779297 10.125 0.779297ZM24 18.4043V23.6543C24 24.2777 23.4984 24.7793 22.875 24.7793H1.125C0.501562 24.7793 0 24.2777 0 23.6543V18.4043C0 17.7809 0.501562 17.2793 1.125 17.2793H8.00156L10.2984 19.5762C11.2406 20.5184 12.7594 20.5184 13.7016 19.5762L15.9984 17.2793H22.875C23.4984 17.2793 24 17.7809 24 18.4043ZM18.1875 22.5293C18.1875 22.0137 17.7656 21.5918 17.25 21.5918C16.7344 21.5918 16.3125 22.0137 16.3125 22.5293C16.3125 23.0449 16.7344 23.4668 17.25 23.4668C17.7656 23.4668 18.1875 23.0449 18.1875 22.5293ZM21.1875 22.5293C21.1875 22.0137 20.7656 21.5918 20.25 21.5918C19.7344 21.5918 19.3125 22.0137 19.3125 22.5293C19.3125 23.0449 19.7344 23.4668 20.25 23.4668C20.7656 23.4668 21.1875 23.0449 21.1875 22.5293Z" fill="white" fill-opacity="0.5"/>
</svg>
