<svg width="20" height="22" viewBox="0 0 20 22" fill="none" xmlns="http://www.w3.org/2000/svg">
<path d="M10.0117 8.15474C9.31095 8.15474 8.6547 8.42661 8.15782 8.92349C7.66329 9.42036 7.38907 10.0766 7.38907 10.7774C7.38907 11.4782 7.66329 12.1344 8.15782 12.6313C8.6547 13.1258 9.31095 13.4001 10.0117 13.4001C10.7125 13.4001 11.3688 13.1258 11.8656 12.6313C12.3602 12.1344 12.6344 11.4782 12.6344 10.7774C12.6344 10.0766 12.3602 9.42036 11.8656 8.92349C11.6229 8.67893 11.3341 8.48504 11.0158 8.35307C10.6976 8.2211 10.3563 8.15368 10.0117 8.15474ZM19.675 13.6743L18.1422 12.3641C18.2149 11.9188 18.2524 11.4641 18.2524 11.0118C18.2524 10.5594 18.2149 10.1024 18.1422 9.65942L19.675 8.34927C19.7908 8.25014 19.8737 8.11812 19.9126 7.97075C19.9515 7.82338 19.9447 7.66765 19.893 7.52427L19.8719 7.46333C19.45 6.2837 18.818 5.19026 18.0063 4.23599L17.9641 4.18677C17.8655 4.07087 17.7341 3.98756 17.5873 3.94782C17.4404 3.90807 17.285 3.91375 17.1414 3.96411L15.2383 4.64146C14.5352 4.06489 13.7524 3.61021 12.9039 3.2938L12.5359 1.30396C12.5082 1.15405 12.4355 1.01615 12.3275 0.908559C12.2195 0.80097 12.0813 0.728791 11.9313 0.701611L11.868 0.689893C10.6492 0.46958 9.36485 0.46958 8.1461 0.689893L8.08282 0.701611C7.93282 0.728791 7.79463 0.80097 7.68662 0.908559C7.57861 1.01615 7.5059 1.15405 7.47814 1.30396L7.10782 3.30317C6.26742 3.6221 5.48453 4.07569 4.78986 4.64614L2.87267 3.96411C2.72915 3.91335 2.57358 3.90746 2.42664 3.94724C2.2797 3.98701 2.14834 4.07055 2.05001 4.18677L2.00782 4.23599C1.19757 5.19128 0.565647 6.28444 0.142199 7.46333L0.121105 7.52427C0.0156363 7.81724 0.102355 8.14536 0.339074 8.34927L1.89064 9.67349C1.81798 10.1141 1.78282 10.5641 1.78282 11.0094C1.78282 11.4594 1.81798 11.9094 1.89064 12.3454L0.343761 13.6696C0.22797 13.7687 0.145097 13.9007 0.106161 14.0481C0.0672258 14.1955 0.0740729 14.3512 0.125792 14.4946L0.146886 14.5555C0.571105 15.7344 1.19689 16.8243 2.01251 17.7829L2.0547 17.8321C2.15326 17.948 2.28463 18.0313 2.43148 18.071C2.57834 18.1108 2.73379 18.1051 2.87735 18.0547L4.79454 17.3727C5.49298 17.9469 6.2711 18.4016 7.11251 18.7157L7.48282 20.7149C7.51059 20.8648 7.5833 21.0027 7.69131 21.1103C7.79932 21.2179 7.9375 21.2901 8.08751 21.3172L8.15079 21.329C9.38153 21.5505 10.6419 21.5505 11.8727 21.329L11.9359 21.3172C12.086 21.2901 12.2241 21.2179 12.3322 21.1103C12.4402 21.0027 12.5129 20.8648 12.5406 20.7149L12.9086 18.725C13.757 18.4063 14.5399 17.954 15.243 17.3774L17.1461 18.0547C17.2896 18.1055 17.4452 18.1114 17.5921 18.0716C17.7391 18.0318 17.8704 17.9483 17.9688 17.8321L18.0109 17.7829C18.8266 16.8196 19.4524 15.7344 19.8766 14.5555L19.8977 14.4946C19.9984 14.204 19.9117 13.8782 19.675 13.6743ZM10.0117 14.8977C7.73595 14.8977 5.89142 13.0532 5.89142 10.7774C5.89142 8.50161 7.73595 6.65708 10.0117 6.65708C12.2875 6.65708 14.132 8.50161 14.132 10.7774C14.132 13.0532 12.2875 14.8977 10.0117 14.8977Z" fill="#4F5B67"/>
</svg>
