<svg width="18" height="22" viewBox="0 0 18 22" fill="none" xmlns="http://www.w3.org/2000/svg">
<path d="M8.32498 17.5227L17.189 8.65627C17.2289 8.61643 17.2476 8.56252 17.2429 8.50862L16.6453 1.44455C16.6289 1.26174 16.4859 1.11877 16.3031 1.10237L9.23904 0.507053C9.18513 0.502366 9.12888 0.521116 9.09138 0.560959L0.22732 9.42502C0.192426 9.46026 0.172852 9.50785 0.172852 9.55744C0.172852 9.60704 0.192426 9.65463 0.22732 9.68987L8.06013 17.5227C8.13279 17.5977 8.25232 17.5977 8.32498 17.5227ZM9.79216 2.24846L15.0562 2.69377L15.5015 7.95783L8.19138 15.2656L2.48201 9.55862L9.79216 2.24846ZM11.2022 6.61322C11.3066 6.71769 11.4307 6.80055 11.5672 6.85708C11.7037 6.91361 11.85 6.9427 11.9977 6.94268C12.1455 6.94267 12.2918 6.91356 12.4282 6.85701C12.5647 6.80047 12.6888 6.71759 12.7932 6.61311C12.8977 6.50863 12.9805 6.3846 13.0371 6.2481C13.0936 6.1116 13.1227 5.9653 13.1227 5.81756C13.1227 5.66981 13.0936 5.52352 13.037 5.38703C12.9805 5.25053 12.8976 5.12652 12.7931 5.02205C12.6886 4.91759 12.5646 4.83473 12.4281 4.7782C12.2916 4.72167 12.1453 4.69258 11.9976 4.69259C11.8498 4.6926 11.7035 4.72172 11.567 4.77826C11.4305 4.83481 11.3065 4.91769 11.202 5.02217C11.0976 5.12665 11.0147 5.25068 10.9582 5.38718C10.9017 5.52368 10.8726 5.66998 10.8726 5.81772C10.8726 5.96547 10.9017 6.11176 10.9583 6.24825C11.0148 6.38474 11.0977 6.50876 11.2022 6.61322ZM17.8523 11.6516L16.9242 10.7258C16.889 10.6909 16.8414 10.6713 16.7918 10.6713C16.7422 10.6713 16.6946 10.6909 16.6594 10.7258L8.17498 19.1938L2.60623 13.6391C2.57099 13.6042 2.5234 13.5846 2.47381 13.5846C2.42421 13.5846 2.37662 13.6042 2.34138 13.6391L1.41326 14.5649C1.37836 14.6001 1.35879 14.6477 1.35879 14.6973C1.35879 14.7469 1.37836 14.7945 1.41326 14.8297L7.11326 20.5203L8.04138 21.4461C8.11404 21.5188 8.23357 21.5188 8.30623 21.4461L17.8523 11.9164C17.925 11.8438 17.925 11.7242 17.8523 11.6516Z" fill="#4F5B67"/>
</svg>
