<svg width="19" height="18" viewBox="0 0 19 18" fill="none" xmlns="http://www.w3.org/2000/svg">
<path fill-rule="evenodd" clip-rule="evenodd" d="M8.23921 2.10832C4.75445 2.10832 1.92949 4.87418 1.92949 8.28603C1.92949 11.6979 4.75445 14.4637 8.23921 14.4637C9.939 14.4637 11.4818 13.8057 12.6164 12.7355C12.6401 12.7052 12.6662 12.6761 12.6946 12.6483C12.723 12.6205 12.7527 12.595 12.7837 12.5717C13.8768 11.4609 14.5489 9.9503 14.5489 8.28603C14.5489 4.87418 11.724 2.10832 8.23921 2.10832ZM14.5776 13.2439C15.6878 11.885 16.3517 10.1614 16.3517 8.28603C16.3517 3.89936 12.7196 0.343262 8.23921 0.343262C3.7588 0.343262 0.126709 3.89936 0.126709 8.28603C0.126709 12.6727 3.7588 16.2288 8.23921 16.2288C10.1547 16.2288 11.915 15.5789 13.3029 14.4919L16.6156 17.7354C16.9676 18.08 17.5384 18.08 17.8904 17.7354C18.2424 17.3907 18.2424 16.8319 17.8904 16.4873L14.5776 13.2439Z" fill="#A6A6A6"/>
</svg>
